<?xml version="1.0" encoding="UTF-8" standalone="no"?>
<svg
   xmlns:dc="http://purl.org/dc/elements/1.1/"
   xmlns:cc="http://creativecommons.org/ns#"
   xmlns:rdf="http://www.w3.org/1999/02/22-rdf-syntax-ns#"
   xmlns:svg="http://www.w3.org/2000/svg"
   xmlns="http://www.w3.org/2000/svg"
   xmlns:xlink="http://www.w3.org/1999/xlink"
   xmlns:sodipodi="http://sodipodi.sourceforge.net/DTD/sodipodi-0.dtd"
   xmlns:inkscape="http://www.inkscape.org/namespaces/inkscape"
   sodipodi:docname="location.svg"
   inkscape:version="1.0 (4035a4fb49, 2020-05-01)"
   id="svg972"
   version="1.1"
   viewBox="0 0 135.46666 135.46667"
   height="512"
   width="512">
  <defs
     id="defs966">
    <linearGradient
       id="nouv">
      <stop
         id="stop893"
         stop-color="#06daae"
         offset="0" />
      <stop
         id="stop895"
         stop-color="#0ccda8"
         offset=".2214" />
      <stop
         id="stop897"
         stop-color="#1dab9a"
         offset=".6285" />
      <stop
         id="stop899"
         stop-color="#2f878a"
         offset="1" />
    </linearGradient>
    <radialGradient
       id="SVGID_1_"
       cx="687.927"
       cy="245.659"
       gradientTransform="matrix(0.978,-0.207,0.207,0.978,-437.176,101.587)"
       gradientUnits="userSpaceOnUse"
       r="206.35899">
      <stop
         offset="0"
         stop-color="#79d3fe"
         id="stop2" />
      <stop
         offset="1"
         stop-color="#2f97f7"
         id="stop4" />
    </radialGradient>
    <radialGradient
       id="SVGID_2_"
       cx="276.70801"
       cy="200.97301"
       gradientUnits="userSpaceOnUse"
       r="521.60602"
       xlink:href="#nouv" />
    <linearGradient
       id="lg1-5">
      <stop
         offset="0"
         stop-color="#06daae"
         id="stop7" />
      <stop
         offset=".2214"
         stop-color="#0ccda8"
         id="stop9" />
      <stop
         offset=".6285"
         stop-color="#1dab9a"
         id="stop11" />
      <stop
         offset="1"
         stop-color="#2f878a"
         id="stop13" />
    </linearGradient>
    <radialGradient
       id="SVGID_3_"
       cx="136.87199"
       cy="102.846"
       gradientUnits="userSpaceOnUse"
       r="56.242001"
       xlink:href="#nouv" />
    <radialGradient
       id="SVGID_4_"
       cx="285.34201"
       cy="403.87201"
       gradientUnits="userSpaceOnUse"
       r="199.558"
       xlink:href="#nouv" />
    <radialGradient
       id="SVGID_5_"
       cx="298.09201"
       cy="183.461"
       gradientUnits="userSpaceOnUse"
       r="671.65802"
       xlink:href="#nouv" />
    <linearGradient
       id="SVGID_6_"
       gradientUnits="userSpaceOnUse"
       x1="338.62399"
       x2="377.00101"
       y1="112.986"
       y2="46.514">
      <stop
         offset="0"
         stop-color="#ab2c37"
         id="stop20" />
      <stop
         offset="1"
         stop-color="#ff7a85"
         id="stop22" />
    </linearGradient>
    <linearGradient
       id="SVGID_7_"
       gradientTransform="matrix(0.866,-0.5,0,1.155,209.694,959.229)"
       gradientUnits="userSpaceOnUse"
       x1="113.857"
       x2="269.741"
       y1="-656.19897"
       y2="-656.19897">
      <stop
         offset="0"
         stop-color="#ff4757"
         id="stop25" />
      <stop
         offset="1"
         stop-color="#ff7a85"
         id="stop27" />
    </linearGradient>
    <linearGradient
       id="SVGID_8_"
       gradientUnits="userSpaceOnUse"
       x1="361.711"
       x2="376.892"
       y1="85.672997"
       y2="59.377998">
      <stop
         offset="0"
         stop-color="#c5baeb"
         id="stop30" />
      <stop
         offset="1"
         stop-color="#d7d1eb"
         id="stop32" />
    </linearGradient>
    <filter
       inkscape:collect="always"
       style="color-interpolation-filters:sRGB"
       id="filter918"
       x="-4.2937423e-05"
       width="1.0000859"
       y="-4.3465808e-05"
       height="1.0000869">
      <feGaussianBlur
         inkscape:collect="always"
         stdDeviation="0.0079994111"
         id="feGaussianBlur920" />
    </filter>
  </defs>
  <sodipodi:namedview
     inkscape:window-maximized="1"
     inkscape:window-y="-8"
     inkscape:window-x="-8"
     inkscape:window-height="997"
     inkscape:window-width="1680"
     units="px"
     showgrid="false"
     inkscape:document-rotation="0"
     inkscape:current-layer="g61"
     inkscape:document-units="mm"
     inkscape:cy="486.72867"
     inkscape:cx="6.3014464"
     inkscape:zoom="0.49497475"
     inkscape:pageshadow="2"
     inkscape:pageopacity="0.0"
     borderopacity="1.0"
     bordercolor="#666666"
     pagecolor="#ffffff"
     id="base" />
  <metadata
     id="metadata969">
    <rdf:RDF>
      <cc:Work
         rdf:about="">
        <dc:format>image/svg+xml</dc:format>
        <dc:type
           rdf:resource="http://purl.org/dc/dcmitype/StillImage" />
        <dc:title></dc:title>
      </cc:Work>
    </rdf:RDF>
  </metadata>
  <g
     id="layer1"
     inkscape:groupmode="layer"
     inkscape:label="Layer 1">
    <g
       transform="matrix(0.26458333,0,0,0.26458333,-3.6627744e-4,0.00223278)"
       id="g61">
      <g
         id="g49">
        <circle
           style="fill:url(#SVGID_1_)"
           cx="256"
           cy="288.42999"
           fill="url(#SVGID_1_)"
           r="223.524"
           id="circle35" />
        <g
           id="g47">
          <g
             id="g41">
            <path
               style="fill:#06daae;fill-opacity:1;filter:url(#filter918)"
               d="M 474.696,242.224 C 453.839,143.508 370.803,73.902 275.219,65.689 l -45.221,35.103 -12.61,-29.52 22.419,2.824 c 0.37,-2.94 0.27,-5.83 -0.237,-8.598 -9.877,0.74 -19.818,2.132 -29.776,4.235 -17.41,3.679 -33.909,9.301 -49.332,16.576 6.834,2.251 11.346,9.082 10.413,16.488 l -1.972,15.651 26.129,-6.162 c 1.355,6.055 -2.554,12.034 -8.644,13.22 l -21.038,4.097 c -2.001,15.886 -16.502,27.142 -32.387,25.141 l -5.922,-0.747 1.812,-14.382 c -6.931,-0.873 -13.256,4.038 -14.129,10.968 l -0.231,1.833 -3.667,-0.462 c -14.329,-1.805 -27.407,8.347 -29.212,22.676 l -16.074,-2.024 -0.142,1.127 c -1.216,9.657 5.626,18.471 15.281,19.687 -0.824,6.541 -6.795,11.176 -13.336,10.353 L 50.03,201.592 c -2.168,5.129 -4.146,10.345 -5.931,15.639 0.638,0.227 1.308,0.395 2.008,0.483 -1.457,11.564 6.737,22.12 18.301,23.576 5.256,0.662 10.054,-3.063 10.716,-8.319 l 1.119,-8.883 c 10.591,1.334 20.257,-6.17 21.591,-16.76 l 0.249,-1.974 19.176,2.415 c -1.354,10.747 6.261,20.556 17.007,21.909 l 5.922,0.746 -1.065,8.46 -3.716,0.447 c -4.857,0.584 -8.14,5.244 -7.056,10.014 l 21.165,-4.281 4.085,-32.43 c 5.379,0.678 9.292,5.439 8.914,10.848 l -0.86,12.309 c -0.604,8.631 3.187,16.983 10.08,22.21 l 2.91,2.207 8.75,-13.455 c 9.495,10.407 23.839,14.927 37.585,11.844 l 3.123,-0.7 2.245,9.497 c 1.962,8.301 -3.153,16.626 -11.445,18.625 l -15.438,3.724 -31.317,-23.754 c -10.868,8.885 -26.022,10.334 -38.377,3.67 l -12.847,-6.929 3.316,-20.638 -84.037,8.752 c -0.175,3.609 -0.907,7.08 -2.111,10.329 -2.93,23.869 -2.037,48.618 3.212,73.463 3.719,17.603 9.428,34.272 16.821,49.842 2.668,0.032 5.357,-0.067 8.061,-0.332 l 14.559,-1.43 5.646,13.173 c 7.813,0.037 14.103,6.425 14.019,14.238 l -0.252,23.163 10.191,7.729 2.744,15.883 c 28.586,24.889 63.284,42.36 100.81,50.29 l 8.161,-6.336 6.153,-48.856 57.289,-44.471 c 5.97,-4.634 3.357,-14.173 -4.142,-15.118 l -14.209,-1.79 c -11.989,-1.51 -22.144,-9.563 -26.345,-20.894 l -20.641,-55.671 c -2.929,-7.9 0.885,-16.706 8.652,-19.975 l 25.453,61.937 -2.025,16.074 c 7.892,5.986 18.605,6.656 27.181,1.699 l 52.486,-30.338 -1.417,-1.95 c -8.529,-11.734 -24.944,-14.355 -36.703,-5.86 l -7.209,-9.288 c -8.168,-10.522 -6.259,-25.673 4.263,-33.84 l 7.041,9.07 c 12.426,16.007 32.164,24.563 52.341,22.688 l 20.889,26.91 14.594,1.839 -2.477,19.67 12.385,15.956 -4.236,33.628 c 13.433,1.692 25.694,-7.826 27.386,-21.259 l 2.265,-17.978 c 11.681,1.471 22.343,-6.804 23.814,-18.486 l 0.853,-6.768 20.304,2.558 -0.533,4.23 c -0.451,3.578 -0.201,7.081 0.63,10.379 17.05,-40.518 22.366,-86.46 12.59,-132.728 z"
               fill="url(#SVGID_2_)"
               id="path37" />
            <path
               style="fill:#06daae;fill-opacity:1"
               d="m 153.564,117.409 3.726,-29.577 c -16.326,8.019 -31.397,17.918 -45.005,29.359 5.717,1.737 12.024,1.557 17.888,-0.91 l 1.289,-0.542 -2.629,20.868 c 12.131,1.528 23.203,-7.067 24.731,-19.198 z"
               fill="url(#SVGID_3_)"
               id="path39" />
          </g>
          <path
             style="fill:#06daae;fill-opacity:1"
             d="m 248.705,507.622 c -5.376,-2.01 -10.907,-0.353 -14.438,3.324 10.226,0.996 20.601,1.28 31.064,0.83 1.098,-5.302 0.85,-10.917 -0.969,-16.308 z"
             fill="url(#SVGID_4_)"
             id="path43" />
          <path
             style="fill:#06daae;fill-opacity:1"
             d="m 399.804,431.146 3.574,4.604 c 3.336,4.296 9.522,5.076 13.818,1.74 l -5.423,-6.986 4.128,-3.204 c 3.026,-2.349 3.574,-6.704 1.226,-9.729 z"
             fill="url(#SVGID_5_)"
             id="path45" />
        </g>
      </g>
      <g
         id="g59">
        <path
           style="fill:url(#SVGID_6_)"
           d="M 401.616,17.478 379.904,4.942 c -10.453,-7.244 -24.813,-6.815 -40.548,3.217 -28.543,18.197 -51.592,62.675 -52.51,101.281 -0.4,16.794 3.328,30.012 9.898,38.743 l -0.009,0.014 35.14,44.932 c 0.633,0.809 1.354,1.414 2.138,1.834 l 21.78,12.575 z"
           fill="url(#SVGID_6_)"
           id="path51" />
        <path
           style="fill:url(#SVGID_7_)"
           d="m 418.479,60.633 c 0,-41.698 -26.058,-60.237 -57.645,-40.098 -28.543,18.197 -51.592,62.675 -52.51,101.281 -0.4,16.794 3.328,30.012 9.898,38.742 l -0.01,0.014 35.14,44.932 c 4.93,6.304 15.139,0.409 20.069,-11.587 l 35.14,-85.508 -0.01,-0.004 c 6.25,-15.519 9.928,-32.131 9.928,-47.772 z"
           fill="url(#SVGID_7_)"
           id="path53" />
        <path
           style="fill:url(#SVGID_8_)"
           d="m 403.61,50.498 -16.207,-9.33 -0.001,0.003 c -6.398,-3.39 -14.616,-2.907 -23.582,2.269 -20.4,11.778 -36.938,43.376 -36.938,70.577 0,14.954 5.005,25.452 12.896,29.928 l -0.006,0.012 14.808,8.55 z"
           fill="url(#SVGID_8_)"
           id="path55" />
        <ellipse
           cx="379.00201"
           cy="101.431"
           fill="#f2effa"
           rx="56.707001"
           ry="32.081001"
           transform="matrix(0.392,-0.92,0.92,0.392,137.272,410.457)"
           id="ellipse57" />
      </g>
      <path
         id="path952"
         style="fill:#000000;fill-opacity:0.04435484;stroke:none;stroke-width:8;stroke-linecap:round;stroke-linejoin:round;stroke-miterlimit:4;stroke-dasharray:none;stroke-dashoffset:37.7953;stroke-opacity:1"
         d="M 255.61914 64.914062 A 223.584 223.539 0 0 0 32.416016 288.45312 A 223.584 223.539 0 0 0 255.28906 511.99023 A 459.59224 463.5714 0 0 1 201.64258 294.64062 A 459.59224 463.5714 0 0 1 262 64.994141 A 223.584 223.539 0 0 0 256 64.914062 A 223.584 223.539 0 0 0 255.61914 64.914062 z "
         transform="translate(0.00138436,-0.00843885)" />
    </g>
  </g>
</svg>
