<?xml version="1.0" encoding="UTF-8" standalone="no"?>
<!-- Created with Inkscape (http://www.inkscape.org/) -->

<svg
   xmlns:dc="http://purl.org/dc/elements/1.1/"
   xmlns:cc="http://creativecommons.org/ns#"
   xmlns:rdf="http://www.w3.org/1999/02/22-rdf-syntax-ns#"
   xmlns:svg="http://www.w3.org/2000/svg"
   xmlns="http://www.w3.org/2000/svg"
   xmlns:sodipodi="http://sodipodi.sourceforge.net/DTD/sodipodi-0.dtd"
   xmlns:inkscape="http://www.inkscape.org/namespaces/inkscape"
   width="64"
   height="64"
   viewBox="0 0 16.933333 16.933334"
   version="1.1"
   id="svg5855"
   inkscape:version="0.92.4 (5da689c313, 2019-01-14)"
   sodipodi:docname="s.svg">
  <defs
     id="defs5849" />
  <sodipodi:namedview
     id="base"
     pagecolor="#ffffff"
     bordercolor="#666666"
     borderopacity="1.0"
     inkscape:pageopacity="0.0"
     inkscape:pageshadow="2"
     inkscape:zoom="3.959798"
     inkscape:cx="-17.180046"
     inkscape:cy="31.482236"
     inkscape:document-units="mm"
     inkscape:current-layer="text6402"
     showgrid="true"
     units="px"
     inkscape:window-width="1680"
     inkscape:window-height="997"
     inkscape:window-x="-8"
     inkscape:window-y="-8"
     inkscape:window-maximized="1">
    <inkscape:grid
       type="xygrid"
       id="grid814" />
  </sodipodi:namedview>
  <metadata
     id="metadata5852">
    <rdf:RDF>
      <cc:Work
         rdf:about="">
        <dc:format>image/svg+xml</dc:format>
        <dc:type
           rdf:resource="http://purl.org/dc/dcmitype/StillImage" />
        <dc:title />
      </cc:Work>
    </rdf:RDF>
  </metadata>
  <g
     inkscape:label="Layer 1"
     inkscape:groupmode="layer"
     id="layer1"
     transform="translate(0,-280.06665)">
    <g
       aria-label="S"
       style="font-style:normal;font-weight:normal;font-size:10.58333302px;line-height:1.25;font-family:sans-serif;letter-spacing:0px;word-spacing:0px;fill:#000000;fill-opacity:1;stroke:none;stroke-width:0.26458332"
       id="text6402">
      <path
         d="m 8.1280001,293.24078 q 2.5738669,0 2.5738669,-1.76107 0,-0.54186 -0.237067,-0.9144 -0.220133,-0.38946 -0.6096,-0.6604 -0.3894666,-0.28786 -0.8974666,-0.49106 -0.4910666,-0.2032 -1.0498666,-0.4064 -0.6434666,-0.22014 -1.2191999,-0.49107 -0.5757334,-0.28787 -0.9990667,-0.6604 -0.4233333,-0.38947 -0.6773333,-0.9144 -0.2370666,-0.52493 -0.2370666,-1.27 0,-1.54093 1.0498666,-2.40453 1.0498666,-0.8636 2.8955998,-0.8636 1.0668,0 1.9304003,0.23706 0.880533,0.22014 1.286933,0.49107 l -0.524933,1.33773 q -0.3556,-0.22013 -1.0668,-0.42333 -0.694267,-0.22013 -1.6256003,-0.22013 -0.4741333,0 -0.8805332,0.1016 -0.4064,0.1016 -0.7112,0.3048 -0.3048,0.2032 -0.4910666,0.52493 -0.1693334,0.3048 -0.1693334,0.72813 0,0.47414 0.1862667,0.79587 0.1862666,0.32173 0.5249333,0.57573 0.3386666,0.23707 0.7789333,0.44027 0.4572,0.2032 0.9990666,0.4064 0.762,0.3048 1.3885336,0.6096 0.643466,0.3048 1.100666,0.72813 0.474134,0.42334 0.728134,1.016 0.254,0.57574 0.254,1.40547 0,1.54093 -1.134534,2.37067 -1.1176,0.82973 -3.1665329,0.82973 -0.6942666,0 -1.2869333,-0.1016 -0.5757333,-0.0847 -1.0329332,-0.2032 -0.4572,-0.13547 -0.7958667,-0.27093 -0.3217333,-0.1524 -0.5079999,-0.254 l 0.4910666,-1.35467 q 0.3894667,0.22013 1.1853333,0.49107 0.7958666,0.27093 1.9473332,0.27093 z"
         style="font-style:normal;font-variant:normal;font-weight:normal;font-stretch:normal;font-size:16.93333244px;font-family:Ubuntu;-inkscape-font-specification:Ubuntu;stroke-width:0.26458332"
         id="path1386" />
    </g>
  </g>
</svg>
