<?xml version="1.0" encoding="UTF-8" standalone="no"?>
<!-- Created with Inkscape (http://www.inkscape.org/) -->

<svg
   xmlns:dc="http://purl.org/dc/elements/1.1/"
   xmlns:cc="http://creativecommons.org/ns#"
   xmlns:rdf="http://www.w3.org/1999/02/22-rdf-syntax-ns#"
   xmlns:svg="http://www.w3.org/2000/svg"
   xmlns="http://www.w3.org/2000/svg"
   xmlns:sodipodi="http://sodipodi.sourceforge.net/DTD/sodipodi-0.dtd"
   xmlns:inkscape="http://www.inkscape.org/namespaces/inkscape"
   width="64"
   height="64"
   viewBox="0 0 16.933333 16.933334"
   version="1.1"
   id="svg5855"
   inkscape:version="0.92.4 (5da689c313, 2019-01-14)"
   sodipodi:docname="letter-k.svg">
  <defs
     id="defs5849" />
  <sodipodi:namedview
     id="base"
     pagecolor="#ffffff"
     bordercolor="#666666"
     borderopacity="1.0"
     inkscape:pageopacity="0.0"
     inkscape:pageshadow="2"
     inkscape:zoom="1.979899"
     inkscape:cx="76.585704"
     inkscape:cy="9.8252743"
     inkscape:document-units="mm"
     inkscape:current-layer="layer1"
     showgrid="true"
     units="px"
     inkscape:window-width="1680"
     inkscape:window-height="997"
     inkscape:window-x="-8"
     inkscape:window-y="-8"
     inkscape:window-maximized="1">
    <inkscape:grid
       type="xygrid"
       id="grid814" />
  </sodipodi:namedview>
  <metadata
     id="metadata5852">
    <rdf:RDF>
      <cc:Work
         rdf:about="">
        <dc:format>image/svg+xml</dc:format>
        <dc:type
           rdf:resource="http://purl.org/dc/dcmitype/StillImage" />
        <dc:title></dc:title>
      </cc:Work>
    </rdf:RDF>
  </metadata>
  <g
     inkscape:label="Layer 1"
     inkscape:groupmode="layer"
     id="layer1"
     transform="translate(0,-280.06665)">
    <g
       aria-label="K"
       style="font-style:normal;font-weight:normal;font-size:10.58333302px;line-height:1.25;font-family:sans-serif;letter-spacing:0px;word-spacing:0px;fill:#000000;fill-opacity:1;stroke:none;stroke-width:0.26458332"
       id="text6402">
      <path
         d="m 12.606867,282.66593 q -0.524934,0.57573 -1.185334,1.28693 -0.6604,0.69427 -1.388533,1.43933 -0.7111999,0.72814 -1.4223999,1.43934 -0.7112,0.7112 -1.3377333,1.3208 0.7281333,0.508 1.5409333,1.25306 0.8128,0.74507 1.5917329,1.59174 0.778934,0.84666 1.456267,1.7272 0.694267,0.88053 1.151467,1.6764 h -1.9304 q -0.508,-0.79587 -1.1684003,-1.59174 -0.6604,-0.8128 -1.4054666,-1.54093 -0.7281333,-0.74507 -1.4901332,-1.3716 -0.7450667,-0.62653 -1.4562666,-1.0668 v 5.57107 H 3.920067 v -11.7348 h 1.6425333 v 5.1816 q 0.5926666,-0.5588 1.3038666,-1.25307 0.7111999,-0.7112 1.4054666,-1.4224 0.6942666,-0.7112 1.3038666,-1.35467 0.6265329,-0.6604 1.0498669,-1.15146 z"
         style="font-style:normal;font-variant:normal;font-weight:normal;font-stretch:normal;font-size:16.93333244px;font-family:Ubuntu;-inkscape-font-specification:Ubuntu;stroke-width:0.26458332"
         id="path831" />
    </g>
  </g>
</svg>
