<?xml version="1.0" encoding="UTF-8" standalone="no"?>
<!-- Created with Inkscape (http://www.inkscape.org/) -->

<svg
   xmlns:dc="http://purl.org/dc/elements/1.1/"
   xmlns:cc="http://creativecommons.org/ns#"
   xmlns:rdf="http://www.w3.org/1999/02/22-rdf-syntax-ns#"
   xmlns:svg="http://www.w3.org/2000/svg"
   xmlns="http://www.w3.org/2000/svg"
   xmlns:sodipodi="http://sodipodi.sourceforge.net/DTD/sodipodi-0.dtd"
   xmlns:inkscape="http://www.inkscape.org/namespaces/inkscape"
   width="64"
   height="64"
   viewBox="0 0 16.933333 16.933334"
   version="1.1"
   id="svg5855"
   inkscape:version="0.92.4 (5da689c313, 2019-01-14)"
   sodipodi:docname="q.svg">
  <defs
     id="defs5849" />
  <sodipodi:namedview
     id="base"
     pagecolor="#ffffff"
     bordercolor="#666666"
     borderopacity="1.0"
     inkscape:pageopacity="0.0"
     inkscape:pageshadow="2"
     inkscape:zoom="3.959798"
     inkscape:cx="-17.180046"
     inkscape:cy="31.482236"
     inkscape:document-units="mm"
     inkscape:current-layer="layer1"
     showgrid="true"
     units="px"
     inkscape:window-width="1680"
     inkscape:window-height="997"
     inkscape:window-x="-8"
     inkscape:window-y="-8"
     inkscape:window-maximized="1">
    <inkscape:grid
       type="xygrid"
       id="grid814" />
  </sodipodi:namedview>
  <metadata
     id="metadata5852">
    <rdf:RDF>
      <cc:Work
         rdf:about="">
        <dc:format>image/svg+xml</dc:format>
        <dc:type
           rdf:resource="http://purl.org/dc/dcmitype/StillImage" />
        <dc:title />
      </cc:Work>
    </rdf:RDF>
  </metadata>
  <g
     inkscape:label="Layer 1"
     inkscape:groupmode="layer"
     id="layer1"
     transform="translate(0,-280.06665)">
    <g
       aria-label="Q"
       style="font-style:normal;font-weight:normal;font-size:10.58333302px;line-height:1.25;font-family:sans-serif;letter-spacing:0px;word-spacing:0px;fill:#000000;fill-opacity:1;stroke:none;stroke-width:0.26458332"
       id="text6402">
      <path
         d="m 2.8617337,287.09398 q 0,-1.50706 0.4402666,-2.65853 0.4572,-1.15147 1.2192,-1.91347 0.7789333,-0.77893 1.7949332,-1.1684 1.0329333,-0.38946 2.1843999,-0.38946 1.1345333,0 2.1335996,0.38946 1.016,0.38947 1.778,1.1684 0.762,0.762 1.202267,1.91347 0.4572,1.15147 0.4572,2.65853 0,1.3208 -0.338667,2.35374 -0.338667,1.03293 -0.948267,1.79493 -0.592666,0.74507 -1.405466,1.2192 -0.795867,0.4572 -1.7102667,0.62653 0.016933,0.38947 0.3386667,0.67734 0.338667,0.3048 0.846667,0.508 0.508,0.2032 1.134533,0.33866 0.626533,0.13547 1.253066,0.2032 l -0.389466,1.28694 q -0.880533,-0.11854 -1.693333,-0.32174 -0.795867,-0.18626 -1.456267,-0.508 -0.6434666,-0.32173 -1.0837333,-0.82973 -0.4402666,-0.49107 -0.5926666,-1.23613 -1.0668,-0.0677 -2.0150666,-0.49107 -0.9482666,-0.44027 -1.6425332,-1.20227 -0.6942667,-0.77893 -1.1006666,-1.8796 -0.4064,-1.10066 -0.4064,-2.54 z m 1.7271999,0 q 0,1.0668 0.2709333,1.94734 0.2709333,0.8636 0.762,1.4732 0.5079999,0.6096 1.2191999,0.94826 0.7281333,0.32174 1.6255999,0.32174 0.8974666,0 1.6086663,-0.32174 0.7112,-0.33866 1.202267,-0.94826 0.508,-0.6096 0.778933,-1.4732 0.270934,-0.88054 0.270934,-1.94734 0,-1.0668 -0.270934,-1.9304 -0.270933,-0.88053 -0.778933,-1.49013 -0.491067,-0.6096 -1.202267,-0.93133 -0.7111997,-0.33867 -1.6086663,-0.33867 -0.8974666,0 -1.6255999,0.33867 -0.7112,0.32173 -1.2191999,0.93133 -0.4910667,0.6096 -0.762,1.49013 -0.2709333,0.8636 -0.2709333,1.9304 z"
         style="font-style:normal;font-variant:normal;font-weight:normal;font-stretch:normal;font-size:16.93333244px;font-family:Ubuntu;-inkscape-font-specification:Ubuntu;stroke-width:0.26458332"
         id="path2510" />
    </g>
  </g>
</svg>
