<?xml version="1.0" encoding="UTF-8" standalone="no"?>
<!-- Created with Inkscape (http://www.inkscape.org/) -->

<svg
   xmlns:dc="http://purl.org/dc/elements/1.1/"
   xmlns:cc="http://creativecommons.org/ns#"
   xmlns:rdf="http://www.w3.org/1999/02/22-rdf-syntax-ns#"
   xmlns:svg="http://www.w3.org/2000/svg"
   xmlns="http://www.w3.org/2000/svg"
   xmlns:sodipodi="http://sodipodi.sourceforge.net/DTD/sodipodi-0.dtd"
   xmlns:inkscape="http://www.inkscape.org/namespaces/inkscape"
   width="184"
   height="184"
   viewBox="0 0 48.683332 48.683334"
   version="1.1"
   id="svg8"
   sodipodi:docname="nback-case1.svg"
   inkscape:version="0.92.4 (5da689c313, 2019-01-14)">
  <defs
     id="defs2" />
  <sodipodi:namedview
     id="base"
     pagecolor="#ffffff"
     bordercolor="#666666"
     borderopacity="1.0"
     inkscape:pageopacity="0.0"
     inkscape:pageshadow="2"
     inkscape:zoom="1.979899"
     inkscape:cx="-83.003722"
     inkscape:cy="157.63"
     inkscape:document-units="mm"
     inkscape:current-layer="layer1"
     showgrid="true"
     units="px"
     inkscape:window-width="1680"
     inkscape:window-height="997"
     inkscape:window-x="-8"
     inkscape:window-y="-8"
     inkscape:window-maximized="1">
    <inkscape:grid
       type="xygrid"
       id="grid4518"
       empspacing="4" />
    <inkscape:grid
       type="xygrid"
       id="grid4520"
       empspacing="8"
       color="#ff3f3f"
       opacity="0.1254902"
       empcolor="#ff3f3f"
       empopacity="0.25098039" />
  </sodipodi:namedview>
  <metadata
     id="metadata5">
    <rdf:RDF>
      <cc:Work
         rdf:about="">
        <dc:format>image/svg+xml</dc:format>
        <dc:type
           rdf:resource="http://purl.org/dc/dcmitype/StillImage" />
        <dc:title></dc:title>
      </cc:Work>
    </rdf:RDF>
  </metadata>
  <g
     inkscape:label="Layer 1"
     inkscape:groupmode="layer"
     id="layer1"
     transform="translate(0,-248.31666)">
    <path
       style="fill:#000000;fill-opacity:0.3137255;stroke:none;stroke-width:7.99999952;stroke-linecap:round;stroke-linejoin:round;stroke-miterlimit:4;stroke-dasharray:none;stroke-dashoffset:37.79527664;stroke-opacity:1"
       d="M 0 0 L 0 16 L 0 184 L 16 184 L 176 184 L 184 184 L 184 0 L 176 0 L 0 0 z M 16 16 L 56 16 L 56 56 L 16 56 L 16 16 z M 72 16 L 112 16 L 112 56 L 72 56 L 72 16 z M 128 16 L 168 16 L 168 56 L 128 56 L 128 16 z M 16 72 L 56 72 L 56 112 L 16 112 L 16 72 z M 72 72 L 112 72 L 112 112 L 72 112 L 72 72 z M 128 72 L 168 72 L 168 112 L 128 112 L 128 72 z M 16 128 L 56 128 L 56 168 L 16 168 L 16 128 z M 72 128 L 112 128 L 112 168 L 72 168 L 72 128 z M 128 128 L 168 128 L 168 168 L 128 168 L 128 128 z "
       transform="matrix(0.26458333,0,0,0.26458333,0,248.31666)"
       id="rect847-5-7" />
    <rect
       style="fill:#000000;fill-opacity:0.99494952;stroke:none;stroke-width:1.05833328;stroke-linecap:round;stroke-miterlimit:4;stroke-dasharray:none;stroke-dashoffset:37.79527664;stroke-opacity:1"
       id="rect4526-1-4-3"
       width="19.049999"
       height="19.050007"
       x="14.816667"
       y="248.31667" />
  </g>
</svg>
